<?xml version="1.0" encoding="UTF-8" standalone="no"?>
<!-- Created with Inkscape (http://www.inkscape.org/) -->

<svg
   width="64.802856mm"
   height="64.068298mm"
   viewBox="0 0 64.802856 64.068298"
   version="1.1"
   id="svg5"
   inkscape:version="1.1 (c68e22c387, 2021-05-23)"
   xmlns:inkscape="http://www.inkscape.org/namespaces/inkscape"
   xmlns:sodipodi="http://sodipodi.sourceforge.net/DTD/sodipodi-0.dtd"
   xmlns:xlink="http://www.w3.org/1999/xlink"
   xmlns="http://www.w3.org/2000/svg"
   xmlns:svg="http://www.w3.org/2000/svg">
  <sodipodi:namedview
     id="namedview7"
     pagecolor="#ffffff"
     bordercolor="#666666"
     borderopacity="1.0"
     inkscape:pageshadow="2"
     inkscape:pageopacity="0.0"
     inkscape:pagecheckerboard="0"
     inkscape:document-units="mm"
     showgrid="false"
     inkscape:snap-global="true"
     inkscape:snap-smooth-nodes="true"
     fit-margin-top="0"
     fit-margin-left="0"
     fit-margin-right="0"
     fit-margin-bottom="0"
     inkscape:zoom="1"
     inkscape:cx="126.5"
     inkscape:cy="95.5"
     inkscape:window-width="1280"
     inkscape:window-height="961"
     inkscape:window-x="-8"
     inkscape:window-y="1121"
     inkscape:window-maximized="1"
     inkscape:current-layer="layer1" />
  <defs
     id="defs2">
    <linearGradient
       inkscape:collect="always"
       id="linearGradient14696">
      <stop
         style="stop-color:#008500;stop-opacity:1;"
         offset="0"
         id="stop14692" />
      <stop
         style="stop-color:#008500;stop-opacity:0;"
         offset="1"
         id="stop14694" />
    </linearGradient>
    <linearGradient
       inkscape:collect="always"
       id="linearGradient14193">
      <stop
         style="stop-color:#182418;stop-opacity:1;"
         offset="0"
         id="stop14189" />
      <stop
         style="stop-color:#006600;stop-opacity:1"
         offset="1"
         id="stop14191" />
    </linearGradient>
    <inkscape:path-effect
       effect="fillet_chamfer"
       id="path-effect7705"
       is_visible="true"
       lpeversion="1"
       satellites_param="F,0,0,1,0,7.5189072,0,1 @ F,0,1,1,0,7.7976523,0,1 @ F,0,0,1,0,7.5189072,0,1 @ F,0,0,1,0,7.5189072,0,1 @ F,0,0,1,0,7.5189072,0,1 @ F,0,0,1,0,7.5189072,0,1 @ F,0,0,1,0,7.5189072,0,1 @ F,0,0,1,0,7.5189072,0,1"
       unit="px"
       method="auto"
       mode="F"
       radius="0"
       chamfer_steps="1"
       flexible="false"
       use_knot_distance="true"
       apply_no_radius="true"
       apply_with_radius="true"
       only_selected="false"
       hide_knots="false" />
    <inkscape:path-effect
       effect="perspective-envelope"
       up_left_point="102.39375,171.67427"
       up_right_point="131.22971,155.02568"
       down_left_point="102.39375,204.74719"
       down_right_point="131.22971,188.09859"
       id="path-effect3108"
       is_visible="true"
       lpeversion="1"
       deform_type="perspective"
       horizontal_mirror="false"
       vertical_mirror="false"
       overflow_perspective="false" />
    <inkscape:path-effect
       effect="perspective-envelope"
       up_left_point="73.557783,155.02568"
       up_right_point="102.39375,171.67427"
       down_left_point="73.557783,188.09859"
       down_right_point="102.39375,204.74719"
       id="path-effect2933"
       is_visible="true"
       lpeversion="1"
       deform_type="perspective"
       horizontal_mirror="false"
       vertical_mirror="false"
       overflow_perspective="false" />
    <inkscape:path-effect
       effect="perspective-envelope"
       up_left_point="73.557783,155.02568"
       up_right_point="102.39375,138.1528"
       down_left_point="102.39375,171.67427"
       down_right_point="131.22971,155.02568"
       id="path-effect2874"
       is_visible="true"
       lpeversion="1"
       deform_type="perspective"
       horizontal_mirror="false"
       vertical_mirror="false"
       overflow_perspective="false" />
    <linearGradient
       inkscape:collect="always"
       xlink:href="#linearGradient14193"
       id="linearGradient12522"
       x1="77.085014"
       y1="161.67566"
       x2="98.244301"
       y2="199.19284"
       gradientUnits="userSpaceOnUse" />
    <linearGradient
       inkscape:collect="always"
       xlink:href="#linearGradient14193"
       id="linearGradient13161"
       x1="104.23718"
       y1="174.0867"
       x2="129.76045"
       y2="186.43456"
       gradientUnits="userSpaceOnUse" />
    <linearGradient
       inkscape:collect="always"
       xlink:href="#linearGradient14696"
       id="linearGradient14698"
       x1="101.869"
       y1="169.20105"
       x2="102.25704"
       y2="143.40416"
       gradientUnits="userSpaceOnUse" />
    <linearGradient
       inkscape:collect="always"
       xlink:href="#linearGradient14193"
       id="linearGradient14918"
       x1="72.245949"
       y1="171.45"
       x2="132.46118"
       y2="171.45"
       gradientUnits="userSpaceOnUse" />
  </defs>
  <g
     inkscape:label="Layer 1"
     inkscape:groupmode="layer"
     id="layer1"
     transform="translate(-62.184858,-148.31226)">
    <path
       id="path15498"
       style="opacity:1;fill:#5e9c2f;fill-opacity:1;stroke-width:4.72334"
       d="m -203.52595,164.89992 30.49545,31.80508 12.90911,-5.0514 -24.50861,-26.75368 z"
       sodipodi:nodetypes="ccccc" />
    <path
       id="path14935"
       style="opacity:0.143921;fill:#000000;fill-opacity:1;stroke-width:0.772944"
       d="m 89.831724,207.43238 c -3.398851,5.9e-4 -6.713371,0.10406 -9.180833,0.29462 l -13.719061,1.0596 c -5.176028,0.37454 -5.616958,0.51465 -3.708818,0.94621 l 1.745115,0.50292 3.489709,1.00588 c 1.204211,0.3471 4.71456,0.61821 9.208741,0.71121 l 19.010209,0.39341 c 4.494164,0.093 9.289644,-0.006 12.579594,-0.2603 l 13.91646,-1.07485 c 3.28996,-0.25409 4.57507,-0.62445 3.37086,-0.97155 l -5.03329,-1.45077 c -2.04824,-0.55587 -4.03113,-0.62422 -8.57519,-0.71432 -1.86742,-0.0186 -6.56807,-0.1359 -6.56807,-0.1359 l -6.568591,-0.13594 -6.568074,-0.13593 c -1.123543,-0.0233 -2.26581,-0.0345 -3.398761,-0.0343 z" />
    <g
       id="g14933"
       transform="rotate(-15,132.46118,204.15448)">
      <path
         style="opacity:1;fill:url(#linearGradient14918);fill-opacity:1;stroke-width:2.78131"
         d="m 95.882199,140.4903 -16.802932,9.70126 c -6.254788,3.34454 -7.149825,4.98296 -6.75295,10.8743 v 6.74161 13.48321 c -2e-6,4.65272 2.482185,8.95201 6.511551,11.27839 l 17.044331,9.84063 c 4.029357,2.32637 8.993741,2.32637 13.023101,0 l 17.04433,-9.84063 c 4.02937,-2.32638 6.51155,-6.62567 6.51155,-11.27839 v -19.44751 c -0.1156,-7.48234 -1.8017,-8.84982 -5.88897,-11.15279 -1.74159,-0.71547 -5.88897,-3.40003 -5.88897,-3.40003 l -5.88897,-3.40002 -5.88897,-3.40003 c -4.02936,-2.32637 -8.993744,-2.32637 -13.023101,0 z"
         sodipodi:nodetypes="scccssssssccccss"
         id="path848" />
      <path
         style="opacity:1;fill:url(#linearGradient14698);fill-opacity:1;stroke-width:2.06128"
         d="m 79.525234,152.35244 c -2.50837,1.46773 -2.48323,3.82733 0.0508,5.29035 l 18.29189,10.56092 c 2.508466,1.44827 6.543196,1.44827 9.051666,0 l 18.29188,-10.56092 c 2.53401,-1.46302 2.55916,-3.82262 0.0508,-5.29035 l -18.29188,-10.70319 c -2.53409,-1.48278 -6.61914,-1.48278 -9.153236,0 z"
         id="rect2076" />
      <path
         style="opacity:1;fill:url(#linearGradient12522);fill-opacity:1;stroke-width:2.06128"
         d="m 78.829446,158.89619 c -2.52122,-1.45563 -4.55076,-0.29926 -4.55076,2.59238 v 20.9797 c 0,2.89165 2.02954,6.39155 4.55076,7.84719 l 18.29232,10.56117 c 2.52122,1.45564 4.551084,0.29946 4.551084,-2.59219 v -20.97971 c 0,-2.89164 -2.029864,-6.39174 -4.551084,-7.84738 z"
         id="rect2607" />
      <path
         style="opacity:1;fill:url(#linearGradient13161);fill-opacity:1;stroke-width:2.06128"
         d="m 107.66574,169.45739 c -2.52121,1.45564 -4.55109,4.95535 -4.55109,7.84701 v 20.98007 c 0,2.89167 2.02988,4.04784 4.55109,2.5922 l 18.29232,-10.56117 c 2.5212,-1.45563 4.55075,-4.95553 4.55075,-7.84719 v -20.98007 c 0,-2.89166 -2.02955,-4.04763 -4.55075,-2.59201 z"
         id="rect2781" />
      <path
         style="opacity:1;fill:#ffffff;fill-opacity:0.996078;stroke-width:2.06128"
         d="m 114.71383,153.26982 c 1.48828,-0.86287 3.89368,-0.86287 5.37108,0 1.47633,0.86239 1.46522,2.25927 -0.0229,3.12013 -1.48726,0.86024 -3.88827,0.86024 -5.36469,0 -1.47723,-0.86086 -1.47073,-2.25774 0.0164,-3.12013 z"
         id="path11482" />
      <path
         style="opacity:1;fill:#ffffff;fill-opacity:0.996078;stroke-width:2.06128"
         d="m 99.427044,162.13456 c 1.477176,-0.85663 3.873866,-0.85671 5.351416,-1.9e-4 1.47648,0.85606 1.47422,2.24272 -0.003,3.09716 -1.47627,0.85367 -3.86811,0.85358 -5.344416,-1.9e-4 -1.47711,-0.8544 -1.47971,-2.24077 -0.004,-3.09678 z"
         id="path11480" />
      <path
         style="opacity:1;fill:#ffffff;fill-opacity:0.996078;stroke-width:2.06128"
         d="m 99.708074,153.43959 c 1.482806,-0.86298 3.888536,-0.86298 5.371356,0 1.48177,0.86235 1.47933,2.25918 -0.004,3.11989 -1.48173,0.8601 -3.88257,0.8601 -5.364316,0 -1.48284,-0.86071 -1.48528,-2.25754 -0.004,-3.11989 z"
         id="path11478" />
      <path
         style="opacity:1;fill:#ffffff;fill-opacity:0.996078;stroke-width:2.06128"
         d="m 99.991484,144.68085 c 1.488416,-0.86917 3.902746,-0.86909 5.390776,1.9e-4 1.48668,0.86865 1.48404,2.27548 -0.004,3.14248 -1.48716,0.86636 -3.89657,0.86645 -5.383696,1.9e-4 -1.48819,-0.86704 -1.49048,-2.27416 -0.003,-3.14286 z"
         id="path11476" />
      <path
         style="opacity:1;fill:#ffffff;fill-opacity:0.996078;stroke-width:2.06128"
         d="m 84.704764,153.60953 c 1.47727,-0.86287 3.88283,-0.86287 5.37098,0 1.48679,0.86225 1.493,2.25874 0.0158,3.11925 -1.47614,0.85973 -3.87631,0.85973 -5.36328,0 -1.48805,-0.86051 -1.49944,-2.257 -0.0235,-3.11925 z"
         id="path11474" />
      <path
         style="opacity:1;fill:#ffffff;fill-opacity:0.996078;stroke-width:2.06128"
         d="m 80.332396,180.82716 c 1.48217,0.85572 2.68376,2.92745 2.68392,4.62748 1e-5,1.7001 -1.20162,2.38453 -2.68392,1.5287 -1.48229,-0.85579 -2.68394,-2.92776 -2.68391,-4.62784 1.5e-4,-1.69986 1.20174,-2.3841 2.68391,-1.52834 z"
         id="path11544" />
      <path
         style="opacity:1;fill:#ffffff;fill-opacity:0.996078;stroke-width:2.06128"
         d="m 87.975766,176.80824 c 1.48216,0.85591 2.68361,2.92771 2.68359,4.62764 2e-5,1.69996 -1.20143,2.38445 -2.68359,1.52889 -1.48229,-0.85578 -2.68394,-2.92776 -2.68391,-4.62784 -3e-5,-1.7001 1.20162,-2.38453 2.68391,-1.52869 z"
         id="path11542" />
      <path
         style="opacity:1;fill:#ffffff;fill-opacity:0.996078;stroke-width:2.06128"
         d="m 95.618816,172.78948 c 1.48229,0.85579 2.68394,2.92776 2.68392,4.62784 -1.6e-4,1.69986 -1.20175,2.3841 -2.68392,1.52834 -1.48218,-0.85572 -2.68376,-2.92744 -2.68392,-4.62749 -2e-5,-1.7001 1.20162,-2.38453 2.68392,-1.52869 z"
         id="path11540" />
      <path
         style="opacity:1;fill:#ffffff;fill-opacity:0.996078;stroke-width:2.06128"
         d="m 116.81172,176.80828 c 1.4823,-0.85583 2.68394,-0.1714 2.68392,1.5287 2e-5,1.70008 -1.20162,3.77206 -2.68392,4.62785 -1.48216,0.85555 -2.6836,0.17106 -2.68358,-1.5289 -2e-5,-1.69993 1.20142,-3.77173 2.68358,-4.62765 z"
         id="path11584" />
    </g>
    <path
       id="rect15357"
       style="opacity:1;fill:#5e9c2f;fill-opacity:1;stroke-width:4.72334"
       d="M -232.52469,164.89992 H -184.63 l -7.10936,11.5995 h -40.78533 z"
       sodipodi:nodetypes="ccccc" />
    <path
       id="path15985"
       style="opacity:1;fill:#5e9c2f;fill-opacity:1;stroke-width:4.72334"
       d="m -134.11606,164.71283 -30.49545,31.80508 -12.90911,-5.0514 24.50861,-26.75368 z"
       sodipodi:nodetypes="ccccc" />
    <path
       id="path15987"
       style="opacity:1;fill:#5e9c2f;fill-opacity:1;stroke-width:4.72334"
       d="m -105.11732,164.71283 h -47.89469 l 7.10937,11.5995 h 40.78532 z"
       sodipodi:nodetypes="ccccc" />
    <rect
       style="opacity:1;fill:#5e9c2f;fill-opacity:1;stroke-width:4.72334"
       id="rect16011"
       width="7.8577251"
       height="5.6126595"
       x="-172.46924"
       y="191.09235" />
  </g>
</svg>
